<?xml version="1.0" encoding="UTF-8"?>
<svg id="Layer_1" xmlns="http://www.w3.org/2000/svg" baseProfile="tiny" version="1.2" viewBox="0 0 512 512">
  <!-- Generator: Adobe Illustrator 30.1.0, SVG Export Plug-In . SVG Version: 2.1.1 Build 136)  -->
  <g>
    <g>
      <path d="M256,63.47c80.76.6,153.48,60.9,198.4,123.93,49.38,69.28,68.93,205.01-24.04,248.72-41.21,19.37-83,12.09-126.02,4.66-16.04-2.77-32.19-3.98-48.34-3.95V63.47Z" fill="#e5988a"/>
      <path d="M256,63.47c-80.76.6-153.48,60.9-198.4,123.93-49.38,69.28-68.93,205.01,24.04,248.72,41.21,19.37,83,12.09,126.02,4.66,16.04-2.77,32.19-3.98,48.34-3.95V63.47Z" fill="#ecb2a1"/>
    </g>
    <path d="M430.36,436.12c45.92-21.59,64.39-65.64,65.36-113.05h-.03c-.05,1.4-.13,2.8-.26,4.21-2.89,32.28-30.34,60.47-58.67,74.66-41.05,20.55-77.93,16.34-121.39,7.55-19.82-4.01-38.84-6.84-59.39-6.99v34.34c16.15-.03,32.31,1.18,48.34,3.95,43.02,7.43,84.81,14.72,126.02-4.66Z" fill="#b76d5f"/>
    <path d="M75.2,401.94c-28.33-14.18-55.78-42.38-58.67-74.66-.13-1.4-.2-2.8-.26-4.21h-.03c.98,47.4,19.44,91.45,65.36,113.05,41.21,19.37,83,12.09,126.02,4.66,16.04-2.77,32.19-3.98,48.34-3.95v-34.34c-20.55.15-39.57,2.98-59.39,6.99-43.45,8.79-80.34,13.01-121.39-7.55Z" fill="#cc7f71"/>
    <g>
      <path d="M438.18,193.81c-7.88-8.82-16.33-17.23-25.23-25.27-35.19-31.8-78.21-60.88-125.84-70.45-10.22-2.05-20.66-3.11-31.1-2.78v307.05s0,.13,0,.13c20.55.15,39.57,2.98,59.39,6.99,43.45,8.79,80.34,13.01,121.39-7.55,28.33-14.18,55.78-42.38,58.67-74.66,1.27-14.13-1.29-28.34-5.17-42.01-9.86-34.74-28.39-64.94-52.09-91.47Z" fill="#cc7f71"/>
      <path d="M21.73,285.28c-3.88,13.66-6.44,27.88-5.17,42.01,2.89,32.28,30.34,60.47,58.67,74.66,41.05,20.55,77.93,16.34,121.39,7.55,19.82-4.01,38.84-6.84,59.39-6.99v-.13s0-307.05,0-307.05c-10.44-.33-20.88.73-31.1,2.78-47.64,9.56-90.66,38.65-125.84,70.45-8.9,8.04-17.35,16.45-25.23,25.27-23.71,26.53-42.23,56.73-52.09,91.47Z" fill="#e5988a"/>
    </g>
  </g>
  <g>
    <path d="M405.98,315.92c.53,3.46.86,6.91.96,10.35.61,20.85-8.43,42.29-29.79,48.64-40.57,12.07-65.75-35.02-70.45-67.91-2.77-19.38-4.17-58.62,17.9-69.16,19.91-9.51,40.41,4.04,53.11,18.9,13.71,16.03,24.95,37.61,28.26,59.18Z" fill="#e5988a"/>
    <path d="M400.89,301.24c.3,2.5.49,5.01.56,7.55.51,18.65-5.63,40.26-24.59,47.71-.97.38-1.95.72-2.95,1.01-38.74,11.53-62.78-33.44-67.27-64.85-2.64-18.5-3.98-55.98,17.1-66.04,19.02-9.08,38.59,3.86,50.72,18.05,13.54,15.83,23.92,35.56,26.43,56.58Z" fill="#5c362f"/>
  </g>
  <g>
    <path d="M105.97,316c-.53,3.46-.86,6.91-.96,10.35-.61,20.85,8.43,42.29,29.79,48.64,40.57,12.07,65.75-35.02,70.45-67.91,2.77-19.38,4.17-58.62-17.9-69.16-19.91-9.51-40.41,4.04-53.11,18.9-13.71,16.03-24.95,37.61-28.26,59.18Z" fill="#ecb2a1"/>
    <path d="M111.07,301.31c-.3,2.5-.49,5.01-.56,7.55-.51,18.65,5.63,40.26,24.59,47.71.97.38,1.95.72,2.95,1.01,38.74,11.53,62.78-33.44,67.27-64.85,2.64-18.5,3.98-55.98-17.1-66.04-19.02-9.08-38.59,3.86-50.72,18.05-13.54,15.83-23.92,35.56-26.43,56.58Z" fill="#5c362f"/>
  </g>
</svg>